<svg width="512" height="512" viewBox="0 0 512 512" fill="none" xmlns="http://www.w3.org/2000/svg">
<g clip-path="url(#clip0_10_68)">
<path fill-rule="evenodd" clip-rule="evenodd" d="M394.227 105.379C372.558 110.907 342.27 144.227 324.442 182.15C321.331 188.765 288.845 202.495 269.695 205.285C263.163 206.237 259.596 206.131 248.182 204.643C106.01 186.097 84.0936 184.196 66.0008 188.841C19.8363 200.693 -10.9221 249.576 3.29229 288.501C4.69773 292.349 7.02733 298.613 8.46861 302.417C10.1019 306.732 11.3102 312.376 11.6776 317.417C12.4916 328.591 16.3278 332.562 23.4382 329.59C29.5656 327.03 30.5755 315.452 25.9649 300.639C23.1873 291.715 23.9502 292.796 29.7678 306.034C36.9793 322.44 36.9563 322.629 26.3579 334.805C18.6049 343.711 18.3694 345.637 23.8939 354.941C32.3252 369.146 40.0001 389.105 40.0001 396.829C40.0001 400.772 41.6334 404.998 43.7889 406.637C46.9902 409.069 85.3492 408.494 89.8817 405.947C104.577 397.687 99.1784 373.877 82.2388 372.25L77.4004 371.784L72.0756 361.463C64.9806 347.709 65.0433 347.419 78.1288 333.362C83.6673 327.411 89.842 320.168 91.8504 317.267L95.4996 311.992L101.5 312.58C143.126 316.663 171.859 323.368 214.368 338.916C249.599 351.802 260.837 355 270.879 355C275.402 355 274.952 353.961 277.535 370.358C283.107 405.713 285.292 408 313.5 408C329.039 408 331.529 407.771 334.956 406.022C351.634 397.514 343.903 370.068 324.809 370.006C322.154 369.997 321.787 368.456 322.536 360.462L323.235 352.998L335.368 347.049C374.934 327.647 392.239 303.628 408.535 245.5L413.301 228.501L419.753 222.031C427.788 213.975 431.148 209.124 436.065 198.479C440.75 188.342 441.316 188.004 453.685 187.985C478.093 187.949 491.788 179.758 505.504 156.993C512.553 145.295 513.807 139.939 510.25 136.733C507.927 134.639 506.995 134.453 481.692 131.016C457.152 127.683 455.176 126.909 451.946 119.375C447.299 108.531 413.754 100.397 394.227 105.379ZM423.223 122.47C426.327 123.278 430.359 124.553 432.183 125.303L435.5 126.666L430.746 128.778C415.672 135.478 425.842 148.819 441.466 142.84C446.718 140.831 447.333 140.789 450.351 142.227C454.296 144.109 460.563 145.361 477.201 147.59L489.901 149.293L488.343 152.303C481.854 164.854 471.514 170.255 452.526 171.017C432.316 171.827 428.85 173.997 420.616 191C418.085 196.225 414.902 201.85 413.544 203.5L411.072 206.5L411.036 203.218C410.99 199.002 408.082 190.421 402.467 177.924C397.415 166.684 397.203 165.024 400 158.5C403.838 149.548 401.343 144 393.481 144C386.901 144 382.101 151.857 381.228 164.055C380.775 170.403 381 171.213 387.378 186.177C394.747 203.464 395.105 205.533 391.473 209.85C383.466 219.365 363.754 208.269 361.54 193C359.291 177.501 342.759 178.959 344.536 194.5C347.254 218.244 378.057 238.972 395.032 228.48C395.957 227.909 395.803 228.484 387.844 255.494C377.043 292.14 361.397 313.39 333.75 328.954C327.762 332.325 327.112 332.179 329.5 328C333.732 320.598 326.351 312.604 318.561 316.154C312.311 319.002 305.999 343.558 305.751 366.001C305.576 381.829 306.556 383.013 322.999 386.817C325.05 387.291 326.632 388.324 326.823 389.313C327.114 390.83 325.742 391 313.157 391H299.167L297.006 381.797C290.848 355.567 289.13 319.561 293.413 306.505C296.279 297.769 293.139 292.534 285.426 293.185C278.281 293.788 275.094 302.662 274.27 324.25L273.743 338.001H270.5C264.402 338.001 248.502 333.228 219.5 322.692C177.562 307.456 155.39 302.085 111.337 296.492L106.174 295.836L112.245 284.278C120.924 267.75 120.387 259.601 110.615 259.601C105.898 259.601 104.365 261.178 100.062 270.46C91.716 288.461 78.0891 308.54 64.4187 322.984C46.5294 341.883 45.874 349.411 59.8734 375.191C66.82 387.985 68.0539 389 76.6491 389C79.0427 389 80.9998 389.464 80.9998 390.031C80.9998 390.697 76.7144 390.962 68.8744 390.78L56.7476 390.5L55.0107 384C52.548 374.788 48.7387 365.212 43.5918 355.297L39.1476 346.735L43.9681 340.942C54.1083 328.758 54.4795 319.491 45.6219 299.629C31.0184 266.888 27.4062 244.579 34.4552 230.668C42.1326 215.515 61.8971 204.723 84.5006 203.342C94.395 202.738 170.577 211.228 235 220.115C270.678 225.037 286.646 222.381 320.583 205.882C334.634 199.05 334.482 199.204 344.209 182.001C373.211 130.702 394.179 114.904 423.223 122.47ZM23.4369 291.5C23.8683 292.75 23.5803 292.563 22.6664 291C20.8705 287.926 16.9857 276.252 17.0382 274.085C17.06 273.213 18.3528 276.325 19.9118 281C21.4708 285.676 23.058 290.4 23.4369 291.5Z" fill="white"/>
</g>
<defs>
<clipPath id="clip0_10_68">
<rect width="512" height="512" fill="white"/>
</clipPath>
</defs>
</svg>
