<svg width="256" height="256" viewBox="0 0 256 256" fill="none" xmlns="http://www.w3.org/2000/svg">
<path fill-rule="evenodd" clip-rule="evenodd" d="M183.781 68.6C175.113 70.8114 162.998 84.1392 155.867 99.3088C154.622 101.955 141.628 107.446 133.968 108.563C131.355 108.944 129.928 108.901 125.363 108.306C68.4937 100.887 59.7271 100.127 52.4901 101.985C34.0243 106.726 21.7209 126.279 27.4067 141.849C27.9689 143.388 28.9007 145.894 29.4771 147.415C30.1305 149.141 30.6139 151.399 30.7607 153.415C31.0863 157.885 32.6209 159.473 35.4651 158.284C37.9159 157.26 38.32 152.629 36.4757 146.704C35.3647 143.134 35.6699 143.567 37.9969 148.862C40.8815 155.424 40.8723 155.5 36.6329 160.37C33.5317 163.933 33.4375 164.703 35.6473 168.425C39.0199 174.107 42.0897 182.09 42.0897 185.18C42.0897 186.757 42.7431 188.448 43.6053 189.103C44.8859 190.076 60.2295 189.846 62.0425 188.827C67.9207 185.523 65.7611 175.999 58.9853 175.348L57.0499 175.162L54.9199 171.034C52.0819 165.532 52.1071 165.416 57.3413 159.793C59.5567 157.413 62.0266 154.516 62.8299 153.355L64.2896 151.245L66.6899 151.48C83.3401 153.114 94.8335 155.796 111.837 162.015C125.929 167.169 130.425 168.449 134.441 168.449C136.251 168.449 136.071 168.033 137.104 174.592C139.333 188.734 140.206 189.649 151.49 189.649C157.706 189.649 158.701 189.557 160.072 188.857C166.743 185.454 163.651 174.476 156.013 174.451C154.952 174.447 154.805 173.831 155.104 170.633L155.384 167.648L160.237 165.268C176.063 157.507 182.986 147.9 189.504 124.649L191.41 117.849L193.991 115.261C197.205 112.039 198.549 110.098 200.516 105.84C202.39 101.785 202.616 101.65 207.564 101.642C217.326 101.628 222.804 98.3518 228.292 89.2458C231.11 84.5666 231.612 82.424 230.19 81.142C229.26 80.3042 228.888 80.2296 218.766 78.8548C208.95 77.5216 208.16 77.2124 206.868 74.1986C205.01 69.861 191.591 66.6072 183.781 68.6ZM195.379 75.4368C196.621 75.7598 198.233 76.2698 198.963 76.5698L200.29 77.115L198.388 77.9598C192.359 80.6396 196.427 85.9762 202.676 83.5846C204.776 82.7808 205.022 82.764 206.23 83.3394C207.808 84.092 210.314 84.5928 216.97 85.4848L222.05 86.1656L221.426 87.3698C218.832 92.39 214.696 94.5506 207.1 94.8554C199.016 95.1794 197.63 96.0472 194.336 102.849C193.324 104.939 192.051 107.188 191.507 107.848L190.519 109.048L190.504 107.736C190.486 106.049 189.323 102.617 187.077 97.618C185.056 93.1222 184.971 92.4582 186.09 89.8484C187.625 86.2676 186.627 84.0486 183.482 84.0486C180.85 84.0486 178.93 87.1912 178.581 92.0706C178.4 94.6096 178.49 94.9336 181.041 100.919C183.989 107.834 184.132 108.662 182.679 110.388C179.476 114.195 171.592 109.756 170.706 103.648C169.806 97.4492 163.193 98.0322 163.904 104.248C164.991 113.746 177.313 122.037 184.103 117.841C184.472 117.612 184.411 117.842 181.227 128.646C176.907 143.304 170.648 151.805 159.59 158.03C157.195 159.379 156.935 159.32 157.89 157.649C159.583 154.688 156.63 151.49 153.514 152.91C151.014 154.049 148.49 163.872 148.39 172.849C148.32 179.18 148.712 179.654 155.289 181.175C156.11 181.365 156.743 181.778 156.819 182.174C156.936 182.781 156.387 182.849 151.353 182.849H145.757L144.892 179.167C142.429 168.675 141.742 154.273 143.455 149.051C144.601 145.556 143.346 143.462 140.26 143.723C137.402 143.964 136.127 147.514 135.798 156.148L135.587 161.649H134.29C131.851 161.649 125.491 159.74 113.89 155.525C97.1145 149.431 88.2456 147.283 70.6245 145.045L68.5592 144.783L70.9875 140.16C74.4595 133.549 74.2445 130.289 70.3359 130.289C68.4491 130.289 67.8358 130.92 66.1143 134.633C62.7761 141.833 57.3253 149.865 51.8573 155.642C44.7015 163.202 44.4393 166.213 50.0391 176.525C52.8177 181.642 53.3113 182.048 56.7493 182.048C57.7069 182.048 58.4897 182.234 58.4897 182.461C58.4897 182.727 56.7755 182.833 53.6395 182.761L48.7887 182.648L48.0941 180.049C47.1089 176.364 45.5853 172.533 43.5265 168.567L41.7487 165.143L43.6769 162.825C47.7331 157.952 47.8815 154.245 44.3385 146.3C38.4971 133.204 37.0523 124.28 39.8719 118.716C42.9427 112.654 50.8485 108.338 59.8899 107.785C63.8477 107.544 94.3205 110.94 120.09 114.495C134.361 116.463 140.748 115.401 154.323 108.801C159.944 106.069 159.883 106.13 163.773 99.2488C175.374 78.7294 183.761 72.4102 195.379 75.4368ZM35.4646 143.048C35.6371 143.549 35.5219 143.474 35.1563 142.849C34.4379 141.619 32.8841 136.949 32.9051 136.083C32.9137 135.734 33.4309 136.979 34.0545 138.848C34.6781 140.719 35.313 142.609 35.4646 143.048Z" fill="white"/>
</svg>
