<svg width="441" height="444" viewBox="0 0 441 444" fill="none" xmlns="http://www.w3.org/2000/svg">
<path d="M441 343.508C441 433.597 124.096 444 34.5525 444C-54.9907 444 57.7914 253.208 57.7914 163.12C57.7914 73.0311 130.38 0 219.924 0C309.467 0 441 253.42 441 343.508Z" fill="#26262B"/>
<g clip-path="url(#clip0_170_9)">
<path d="M92 222C92 292.692 149.308 350 220 350C290.692 350 348 292.692 348 222C348 151.308 290.692 94 220 94C149.308 94 92 151.308 92 222Z" fill="#14151E" style="mix-blend-mode:multiply"/>
<path fill-rule="evenodd" clip-rule="evenodd" d="M275.773 162.6C267.105 164.811 254.989 178.139 247.858 193.309C246.614 195.955 233.62 201.446 225.96 202.563C223.347 202.944 221.92 202.901 217.354 202.306C160.486 194.887 151.719 194.127 144.482 195.985C126.016 200.726 113.713 220.279 119.399 235.849C119.961 237.388 120.893 239.894 121.469 241.415C122.122 243.141 122.606 245.399 122.753 247.415C123.078 251.885 124.613 253.473 127.457 252.284C129.908 251.26 130.312 246.629 128.468 240.704C127.357 237.134 127.662 237.567 129.989 242.862C132.873 249.424 132.864 249.5 128.625 254.37C125.524 257.933 125.429 258.703 127.639 262.425C131.012 268.107 134.082 276.09 134.082 279.18C134.082 280.757 134.735 282.448 135.597 283.103C136.878 284.076 152.221 283.846 154.034 282.827C159.913 279.523 157.753 269.999 150.977 269.348L149.042 269.162L146.912 265.034C144.074 259.532 144.099 259.416 149.333 253.793C151.549 251.413 154.018 248.516 154.822 247.355L156.281 245.245L158.682 245.48C175.332 247.114 186.825 249.796 203.829 256.015C217.921 261.169 222.417 262.449 226.433 262.449C228.243 262.449 228.062 262.033 229.096 268.592C231.324 282.734 232.198 283.649 243.482 283.649C249.697 283.649 250.693 283.557 252.064 282.857C258.735 279.454 255.643 268.476 248.005 268.451C246.943 268.447 246.796 267.831 247.096 264.633L247.375 261.648L252.229 259.268C268.055 251.507 274.977 241.9 281.496 218.649L283.402 211.849L285.983 209.261C289.197 206.039 290.541 204.098 292.508 199.84C294.382 195.785 294.608 195.65 299.556 195.642C309.318 195.628 314.796 192.352 320.284 183.246C323.102 178.567 323.604 176.424 322.182 175.142C321.252 174.304 320.88 174.23 310.758 172.855C300.942 171.522 300.152 171.212 298.86 168.199C297.002 163.861 283.583 160.607 275.773 162.6ZM287.371 169.437C288.612 169.76 290.225 170.27 290.955 170.57L292.282 171.115L290.38 171.96C284.351 174.64 288.418 179.976 294.668 177.585C296.768 176.781 297.014 176.764 298.222 177.339C299.8 178.092 302.306 178.593 308.962 179.485L314.042 180.166L313.418 181.37C310.824 186.39 306.688 188.551 299.092 188.855C291.008 189.179 289.622 190.047 286.328 196.849C285.316 198.939 284.042 201.188 283.499 201.848L282.51 203.048L282.496 201.736C282.478 200.049 281.314 196.617 279.068 191.618C277.047 187.122 276.963 186.458 278.082 183.848C279.617 180.268 278.619 178.049 275.474 178.049C272.842 178.049 270.922 181.191 270.573 186.071C270.391 188.61 270.482 188.934 273.033 194.919C275.98 201.834 276.124 202.662 274.671 204.388C271.468 208.195 263.583 203.756 262.698 197.648C261.798 191.449 255.185 192.032 255.896 198.248C256.983 207.746 269.304 216.037 276.095 211.841C276.464 211.612 276.403 211.842 273.219 222.646C268.899 237.304 262.64 245.805 251.582 252.03C249.186 253.379 248.926 253.32 249.882 251.649C251.574 248.688 248.622 245.49 245.506 246.91C243.006 248.049 240.481 257.872 240.382 266.849C240.312 273.18 240.704 273.654 247.281 275.175C248.102 275.365 248.734 275.778 248.811 276.174C248.927 276.781 248.379 276.849 243.345 276.849H237.748L236.884 273.167C234.421 262.675 233.734 248.273 235.447 243.051C236.593 239.556 235.337 237.462 232.252 237.723C229.394 237.964 228.119 241.514 227.789 250.148L227.579 255.649H226.282C223.842 255.649 217.482 253.74 205.881 249.525C189.106 243.431 180.237 241.283 162.616 239.045L160.551 238.783L162.979 234.16C166.451 227.549 166.236 224.289 162.328 224.289C160.441 224.289 159.828 224.92 158.106 228.633C154.768 235.833 149.317 243.865 143.849 249.642C136.693 257.202 136.431 260.213 142.031 270.525C144.81 275.642 145.303 276.048 148.741 276.048C149.699 276.048 150.482 276.234 150.482 276.461C150.482 276.727 148.767 276.833 145.631 276.761L140.781 276.648L140.086 274.049C139.101 270.364 137.577 266.533 135.518 262.567L133.741 259.143L135.669 256.825C139.725 251.952 139.873 248.245 136.33 240.3C130.489 227.204 129.044 218.28 131.864 212.716C134.935 206.654 142.84 202.338 151.882 201.785C155.84 201.544 186.312 204.94 212.082 208.495C226.353 210.463 232.74 209.401 246.315 202.801C251.935 200.069 251.874 200.13 255.765 193.249C267.366 172.729 275.753 166.41 287.371 169.437ZM127.456 237.048C127.629 237.549 127.514 237.474 127.148 236.849C126.43 235.619 124.876 230.949 124.897 230.083C124.906 229.734 125.423 230.979 126.046 232.848C126.67 234.719 127.305 236.609 127.456 237.048Z" fill="white"/>
<path fill-rule="evenodd" clip-rule="evenodd" d="M275.773 162.6C267.105 164.811 254.989 178.139 247.858 193.309C246.614 195.955 233.62 201.446 225.96 202.563C223.347 202.944 221.92 202.901 217.354 202.306C160.486 194.887 151.719 194.127 144.482 195.985C126.016 200.726 113.713 220.279 119.399 235.849C119.961 237.388 120.893 239.894 121.469 241.415C122.122 243.141 122.606 245.399 122.753 247.415C123.078 251.885 124.613 253.473 127.457 252.284C129.908 251.26 130.312 246.629 128.468 240.704C127.357 237.134 127.662 237.567 129.989 242.862C132.873 249.424 132.864 249.5 128.625 254.37C125.524 257.933 125.429 258.703 127.639 262.425C131.012 268.107 134.082 276.09 134.082 279.18C134.082 280.757 134.735 282.448 135.597 283.103C136.878 284.076 152.221 283.846 154.034 282.827C159.913 279.523 157.753 269.999 150.977 269.348L149.042 269.162L146.912 265.034C144.074 259.532 144.099 259.416 149.333 253.793C151.549 251.413 154.018 248.516 154.822 247.355L156.281 245.245L158.682 245.48C175.332 247.114 186.825 249.796 203.829 256.015C217.921 261.169 222.417 262.449 226.433 262.449C228.243 262.449 228.062 262.033 229.096 268.592C231.324 282.734 232.198 283.649 243.482 283.649C249.697 283.649 250.693 283.557 252.064 282.857C258.735 279.454 255.643 268.476 248.005 268.451C246.943 268.447 246.796 267.831 247.096 264.633L247.375 261.648L252.229 259.268C268.055 251.507 274.977 241.9 281.496 218.649L283.402 211.849L285.983 209.261C289.197 206.039 290.541 204.098 292.508 199.84C294.382 195.785 294.608 195.65 299.556 195.642C309.318 195.628 314.796 192.352 320.284 183.246C323.102 178.567 323.604 176.424 322.182 175.142C321.252 174.304 320.88 174.23 310.758 172.855C300.942 171.522 300.152 171.212 298.86 168.199C297.002 163.861 283.583 160.607 275.773 162.6ZM287.371 169.437C288.612 169.76 290.225 170.27 290.955 170.57L292.282 171.115L290.38 171.96C284.351 174.64 288.418 179.976 294.668 177.585C296.768 176.781 297.014 176.764 298.222 177.339C299.8 178.092 302.306 178.593 308.962 179.485L314.042 180.166L313.418 181.37C310.824 186.39 306.688 188.551 299.092 188.855C291.008 189.179 289.622 190.047 286.328 196.849C285.316 198.939 284.042 201.188 283.499 201.848L282.51 203.048L282.496 201.736C282.478 200.049 281.314 196.617 279.068 191.618C277.047 187.122 276.963 186.458 278.082 183.848C279.617 180.268 278.619 178.049 275.474 178.049C272.842 178.049 270.922 181.191 270.573 186.071C270.391 188.61 270.482 188.934 273.033 194.919C275.98 201.834 276.124 202.662 274.671 204.388C271.468 208.195 263.583 203.756 262.698 197.648C261.798 191.449 255.185 192.032 255.896 198.248C256.983 207.746 269.304 216.037 276.095 211.841C276.464 211.612 276.403 211.842 273.219 222.646C268.899 237.304 262.64 245.805 251.582 252.03C249.186 253.379 248.926 253.32 249.882 251.649C251.574 248.688 248.622 245.49 245.506 246.91C243.006 248.049 240.481 257.872 240.382 266.849C240.312 273.18 240.704 273.654 247.281 275.175C248.102 275.365 248.734 275.778 248.811 276.174C248.927 276.781 248.379 276.849 243.345 276.849H237.748L236.884 273.167C234.421 262.675 233.734 248.273 235.447 243.051C236.593 239.556 235.337 237.462 232.252 237.723C229.394 237.964 228.119 241.514 227.789 250.148L227.579 255.649H226.282C223.842 255.649 217.482 253.74 205.881 249.525C189.106 243.431 180.237 241.283 162.616 239.045L160.551 238.783L162.979 234.16C166.451 227.549 166.236 224.289 162.328 224.289C160.441 224.289 159.828 224.92 158.106 228.633C154.768 235.833 149.317 243.865 143.849 249.642C136.693 257.202 136.431 260.213 142.031 270.525C144.81 275.642 145.303 276.048 148.741 276.048C149.699 276.048 150.482 276.234 150.482 276.461C150.482 276.727 148.767 276.833 145.631 276.761L140.781 276.648L140.086 274.049C139.101 270.364 137.577 266.533 135.518 262.567L133.741 259.143L135.669 256.825C139.725 251.952 139.873 248.245 136.33 240.3C130.489 227.204 129.044 218.28 131.864 212.716C134.935 206.654 142.84 202.338 151.882 201.785C155.84 201.544 186.312 204.94 212.082 208.495C226.353 210.463 232.74 209.401 246.315 202.801C251.935 200.069 251.874 200.13 255.765 193.249C267.366 172.729 275.753 166.41 287.371 169.437ZM127.456 237.048C127.629 237.549 127.514 237.474 127.148 236.849C126.43 235.619 124.876 230.949 124.897 230.083C124.906 229.734 125.423 230.979 126.046 232.848C126.67 234.719 127.305 236.609 127.456 237.048Z" fill="white"/>
</g>
<defs>
<clipPath id="clip0_170_9">
<rect x="92" y="94" width="256" height="256" rx="100" fill="white"/>
</clipPath>
</defs>
</svg>
