<svg width="512" height="512" viewBox="0 0 512 512" fill="none" xmlns="http://www.w3.org/2000/svg">
<g clip-path="url(#clip0_113_8)">
<rect width="512" height="512" fill="#0A0C1F"/>
<path fill-rule="evenodd" clip-rule="evenodd" d="M367.545 137.2C350.21 141.623 325.979 168.278 311.717 198.618C309.228 203.91 283.239 214.893 267.919 217.125C262.694 217.887 259.84 217.802 250.709 216.611C136.971 201.774 119.438 200.254 104.964 203.97C68.0323 213.451 43.4255 252.558 54.7971 283.698C55.9215 286.777 57.7851 291.787 58.9379 294.83C60.2447 298.282 61.2115 302.798 61.5051 306.831C62.1563 315.77 65.2255 318.947 70.9139 316.569C75.8155 314.521 76.6235 305.259 72.9351 293.408C70.7131 286.269 71.3235 287.134 75.9775 297.724C81.7467 310.849 81.7283 311 73.2495 320.741C67.0471 327.866 66.8587 329.407 71.2783 336.85C78.0235 348.214 84.1631 364.181 84.1631 370.361C84.1631 373.514 85.4699 376.896 87.1943 378.206C89.7555 380.152 120.443 379.692 124.069 377.654C135.825 371.047 131.506 351.998 117.954 350.697L114.084 350.324L109.824 342.068C104.148 331.065 104.198 330.832 114.666 319.587C119.097 314.826 124.037 309.031 125.644 306.711L128.563 302.491L133.364 302.961C166.664 306.228 189.651 311.591 223.658 324.03C251.842 334.338 260.833 336.897 268.866 336.897C272.485 336.897 272.125 336.066 274.191 349.183C278.649 377.467 280.396 379.297 302.964 379.297C315.395 379.297 317.386 379.114 320.128 377.715C333.47 370.908 327.286 348.952 312.01 348.902C309.887 348.894 309.593 347.662 310.192 341.267L310.751 335.296L320.458 330.536C352.11 315.014 365.955 295.799 378.991 249.297L382.804 235.698L387.966 230.522C394.393 224.077 397.081 220.196 401.016 211.68C404.764 203.57 405.216 203.3 415.112 203.285C434.636 203.256 445.592 196.704 456.568 178.492C462.204 169.133 463.208 164.848 460.364 162.284C458.504 160.608 457.76 160.459 437.516 157.71C417.884 155.043 416.304 154.425 413.72 148.397C410.004 139.722 383.166 133.214 367.545 137.2ZM390.742 150.874C393.225 151.52 396.45 152.54 397.91 153.14L400.564 154.23L396.76 155.92C384.701 161.279 392.837 171.952 405.336 167.169C409.536 165.562 410.028 165.528 412.444 166.679C415.6 168.184 420.612 169.186 433.924 170.97L444.084 172.331L442.836 174.74C437.648 184.78 429.376 189.101 414.184 189.711C398.016 190.359 395.243 192.094 388.656 205.697C386.632 209.877 384.085 214.377 382.998 215.697L381.021 218.097L380.992 215.472C380.956 212.098 378.629 205.234 374.137 195.236C370.095 186.244 369.926 184.916 372.163 179.697C375.233 172.535 373.238 168.097 366.948 168.097C361.684 168.097 357.844 174.382 357.145 184.141C356.783 189.219 356.963 189.867 362.066 201.839C367.961 215.668 368.248 217.324 365.342 220.777C358.936 228.389 343.167 219.512 341.395 207.297C339.596 194.898 326.37 196.064 327.792 208.497C329.966 227.492 354.609 244.075 368.189 235.681C368.928 235.224 368.806 235.684 362.438 257.293C353.798 286.609 341.28 303.609 319.163 316.06C314.373 318.757 313.853 318.64 315.764 315.297C319.149 309.375 313.244 302.98 307.012 305.82C302.012 308.098 296.963 327.744 296.764 345.698C296.624 358.36 297.408 359.308 310.562 362.351C312.203 362.73 313.469 363.556 313.621 364.348C313.855 365.561 312.757 365.697 302.689 365.697H291.497L289.768 358.335C284.842 337.351 283.468 308.546 286.894 298.101C289.186 291.112 286.675 286.924 280.504 287.445C274.788 287.928 272.238 295.027 271.579 312.297L271.158 323.298H268.563C263.685 323.298 250.965 319.479 227.763 311.05C194.213 298.862 176.475 294.565 141.233 290.09L137.102 289.566L141.959 280.319C148.903 267.098 148.473 260.578 140.656 260.578C136.882 260.578 135.655 261.839 132.212 269.265C125.536 283.666 114.634 299.729 103.698 311.284C89.3867 326.403 88.8623 332.426 100.062 353.05C105.619 363.285 106.606 364.097 113.482 364.097C115.398 364.097 116.963 364.468 116.963 364.922C116.963 365.455 113.535 365.667 107.263 365.521L97.5611 365.297L96.1719 360.097C94.2015 352.727 91.1543 345.067 87.0367 337.135L83.4811 330.285L87.3375 325.651C95.4499 315.903 95.7467 308.49 88.6607 292.6C76.9779 266.407 74.0883 248.56 79.7275 237.431C85.8691 225.309 101.681 216.676 119.764 215.571C127.679 215.088 188.625 221.88 240.164 228.989C268.706 232.926 281.48 230.802 308.629 217.602C319.871 212.137 319.749 212.26 327.53 198.498C350.732 157.459 367.506 144.82 390.742 150.874ZM70.9127 286.097C71.2579 287.097 71.0275 286.948 70.2963 285.697C68.8595 283.238 65.7519 273.899 65.7939 272.165C65.8111 271.468 66.8455 273.957 68.0927 277.697C69.3399 281.438 70.6095 285.217 70.9127 286.097Z" fill="white"/>
</g>
<defs>
<clipPath id="clip0_113_8">
<rect width="512" height="512" fill="white"/>
</clipPath>
</defs>
</svg>
